<svg width="190" height="247" viewBox="0 0 190 247" fill="none" xmlns="http://www.w3.org/2000/svg">
<path d="M189.543 -4.57764e-05C189.104 -4.57764e-05 189.018 0.558075 189.003 0.99736C188.97 1.94345 188.937 3.77303 188.904 5.80568C188.858 10.4503 188.721 11.0792 187.534 13.1596C186.118 15.7238 185.067 22.0617 185.889 22.9326C186.757 23.8518 186.346 26.3676 184.976 28.2545C184.2 29.3188 183.606 30.48 183.606 30.8186C183.606 31.9798 182.51 31.496 181.231 29.8027C179.861 27.9642 179.678 27.0933 180.454 26.2708C180.82 25.8838 180.774 25.4484 180.226 24.6259C179.221 23.0777 179.312 22.2552 180.409 22.2552C181.185 22.2552 181.322 22.0133 181.185 20.5619C181.048 19.5943 180.637 18.4331 180.18 17.9009C179.541 17.1752 179.45 16.7882 179.861 16.3527C180.18 16.0141 180.18 15.4335 179.906 14.611C179.678 13.9337 179.541 13.1112 179.678 12.7242C179.998 11.8533 179.495 10.6438 178.81 10.6438C178.125 10.6438 177.12 14.4659 177.577 15.1916C177.76 15.4819 177.897 16.6914 177.942 17.9009C177.942 19.6426 177.668 20.4167 176.663 21.6746C175.156 23.5131 175.065 24.1905 176.252 24.1905C176.755 24.1905 177.303 24.384 177.44 24.6743C177.851 25.4 176.344 30.2865 175.385 31.2057C174.882 31.6895 174.471 32.3668 174.471 32.7539C174.471 33.9634 173.695 32.9474 173.329 31.3508C172.964 29.464 172.781 27.2385 172.69 23.9002C172.69 22.5939 172.37 21.0941 172.05 20.5619C171.502 19.8362 171.411 20.3684 171.457 24.7226C171.457 28.9318 171.274 30.1413 170.452 32.0282C169.904 33.2861 169.447 34.4956 169.447 34.7859C169.447 35.6084 168.534 35.8987 167.849 35.3181C166.615 34.2537 164.925 35.2697 162.459 38.5112C161.18 40.3013 158.851 43.2526 157.298 45.1878C155.791 47.0747 153.69 49.9775 152.639 51.6225C151.543 53.3158 150.493 54.6705 150.264 54.6705C149.625 54.6705 137.796 41.2206 136.471 38.9467C135.786 37.7855 135.01 36.7211 134.736 36.5276C134.507 36.3825 133.822 35.3181 133.274 34.2053C132.087 31.6411 127.291 26.1741 123.865 23.3196C122.45 22.1584 120.166 19.9329 118.841 18.3363C115.964 14.9981 115.325 14.8529 111.579 16.9817C108.93 18.4815 107.743 19.5459 106.373 21.7714C105.976 22.3899 105.106 22.4778 104.593 21.9512L101.12 18.3847C98.6082 15.8689 95.6394 13.1112 94.4519 12.2404C93.3101 11.4179 91.5288 9.53102 90.4784 8.07959C88.1947 4.78967 87.0072 3.87044 85.0889 3.87044C83.8101 3.87044 83.0793 4.451 80.0649 7.83768C78.101 9.96645 74.8582 13.5466 72.8486 15.6754C70.8389 17.8525 68.738 20.6103 68.1442 21.8198C66.9111 24.384 63.4399 29.3188 58.2332 36.0438C56.2236 38.608 54.0769 41.7528 53.4375 43.0591C52.7524 44.5105 52.113 45.3329 51.7933 45.091C51.5192 44.8975 49.2812 42.3333 46.8149 39.4305C44.3942 36.4792 41.9736 33.915 41.5168 33.6731C40.0096 32.899 38.5481 34.1086 34.8942 39.2853C29.4591 46.9295 27.4952 49.2034 24.9375 50.8484C23.6587 51.7192 21.3293 53.5577 19.7764 55.0092C16.8077 57.8152 15.9399 57.9604 14.0673 56.2187C12.9255 55.2027 13.4736 54.6705 15.6659 54.6221C16.7163 54.5737 17.2188 54.477 16.762 54.3318C16.2139 54.1867 15.9856 53.7996 16.1226 53.2191C16.2596 52.5901 15.9856 52.1547 15.0264 51.7676C13.5649 51.0903 13.3365 50.4613 14.387 50.0259C15.0264 49.7356 15.0264 49.6389 14.3413 49.1067C13.7933 48.7196 13.6562 48.1391 13.8846 47.2682C14.2957 45.5265 12.5144 42.2849 11.601 43.1074C11.2356 43.4461 10.9615 43.4461 10.9615 43.2042C10.9615 42.9139 9.72836 41.9947 8.22115 41.1722C5.2524 39.4789 4.01923 37.9307 5.2524 37.4469C5.61779 37.2533 6.34856 37.2533 6.80529 37.3985C8.44952 37.8339 8.76923 36.9147 7.21635 36.2857C5.38942 35.5116 3.65385 33.915 3.65385 33.0442C3.65385 32.2701 7.99279 32.1249 8.44952 32.899C8.8149 33.528 9.59135 33.528 9.59135 32.899C9.59135 32.6087 9.22596 32.2217 8.8149 32.0766C7.71875 31.6411 7.26202 30.867 7.58173 29.9478C7.71875 29.3672 7.26202 28.9318 5.9375 28.3512C4.01923 27.5287 3.42548 26.1257 5.02404 26.1257C6.21154 26.1257 6.16587 25.5451 4.97837 24.771C4.2476 24.2872 4.0649 23.8034 4.2476 22.739C4.43029 21.9649 4.2476 21.0457 3.88221 20.5135C3.51683 19.9813 3.19712 18.6266 3.19712 17.4655C3.19712 14.9497 2.42067 15.2883 2.19231 17.9009C2.10096 19.1105 1.73558 19.7394 1.00481 20.0781C0.182692 20.4651 0 20.9489 0 22.8358C0 24.1421 0.228365 25.1581 0.456731 25.1581C0.730769 25.1581 0.913462 25.4967 0.913462 25.8838C0.913462 26.2708 0.730769 26.6095 0.456731 26.6095C0.182692 26.6095 0 64.5886 0 136.676V151.743C0 204.21 42.5329 246.743 95 246.743C147.467 246.743 190 204.21 190 151.743V123.371C190 41.4625 189.863 -4.57764e-05 189.543 -4.57764e-05ZM84.2212 7.54739C84.7236 8.99883 84.4952 10.6922 83.3534 13.5466C81.9375 17.1268 81.9375 17.2236 83.399 16.0141C85.0889 14.611 85.4087 14.7562 85.4087 16.7398C85.4087 17.8525 84.9062 19.4007 84.0841 20.7554C82.5769 23.368 81.8462 25.4484 82.5769 24.9646C83.125 24.6259 82.9423 28.0126 82.1659 32.4152C81.2981 37.3017 80.8413 38.4628 79.0144 40.5432C78.0096 41.7044 77.1875 42.7688 77.1875 42.9139C77.1875 43.2526 79.6995 41.3173 80.3846 40.3981C81.3894 39.1402 81.8918 39.5756 81.6178 41.5592C81.3438 43.8331 80.2933 46.2038 78.7861 48.0907C76.5938 50.8 78.1466 50.0259 81.1611 46.8811C85.0433 42.9139 84.9519 43.0107 88.2861 40.3013C89.8389 39.0434 93.4471 35.8503 96.3245 33.1409C99.1562 30.48 102.536 27.5771 103.769 26.6579C105.048 25.7386 106.829 23.9002 107.743 22.6423C110.118 19.2072 113.726 17.1752 113.726 19.2072C113.726 19.691 113.087 20.9489 112.356 21.9649C111.579 23.0293 110.986 24.0937 110.986 24.3356C110.986 24.5775 110.529 25.2065 109.981 25.6903C109.478 26.2225 109.204 26.6095 109.433 26.6095C109.661 26.6095 111.123 25.4967 112.721 24.0937C114.32 22.739 115.736 21.8198 115.964 22.0617C116.147 22.3036 116.786 23.755 117.38 25.3032C118.293 27.7223 118.339 28.3512 117.882 29.9478C117.608 30.9638 117.38 32.3185 117.38 32.899C117.38 34.7375 116.375 37.3017 114.776 39.7691C113.406 41.8979 113.315 43.0591 114.639 41.3173C115.005 40.9303 115.644 40.3497 116.147 40.0594C117.014 39.5756 117.06 39.6724 116.786 43.0591C116.512 46.4941 116.147 47.5101 112.356 55.7349C111.671 57.2831 111.305 58.541 111.534 58.541C112.356 58.541 114.183 56.1219 115.416 53.3642C116.055 51.816 117.014 49.9775 117.471 49.2518C117.928 48.5261 118.613 46.4457 118.933 44.6556L119.183 43.2685C119.283 42.7146 120.044 42.6347 120.257 43.1558C120.714 44.2202 121.034 46.2522 121.034 47.9939C121.079 50.3162 121.171 50.8484 121.536 50.1711C122.861 47.8004 124.048 50.8968 123.5 55.4446C123.226 57.6217 121.901 61.976 120.303 65.653C119.938 66.4754 119.481 68.1688 119.252 69.3783C119.024 70.733 118.293 72.2812 117.197 73.5874C116.284 74.7002 115.553 75.9097 115.553 76.2484C115.553 76.5871 115.37 76.9741 115.188 77.1193C114.731 77.4095 111.168 75.6678 109.981 74.6035C109.341 74.0713 108.93 74.0229 107.56 74.5067C106.281 74.9421 105.276 74.9421 103.038 74.4583C100.526 73.9745 99.9784 73.9745 98.6538 74.6518C97.8317 75.1357 97.101 75.4743 97.0553 75.4743C97.0096 75.4743 96.9639 73.8777 97.0096 71.9425C97.0553 68.8945 96.8726 68.0236 95.6851 65.6046C94.9543 64.008 94.2236 62.8469 94.0865 62.9436C93.9495 63.0404 93.2644 62.6534 92.488 62.1212C90.7067 60.7665 89.1538 60.2827 88.4688 60.8633C88.149 61.1052 86.9615 61.2987 85.7284 61.2987C83.9471 61.2987 83.3077 61.5406 82.1659 62.7017C81.3894 63.4758 80.3389 64.9756 79.8365 65.9916C79.0601 67.5398 79.0144 68.072 79.4712 68.9913C80.2019 70.3943 79.7909 72.0876 78.238 74.0229C77.1418 75.4259 77.0962 75.6678 77.6442 76.6355C78.0096 77.1676 78.4207 78.6191 78.5577 79.8286C78.6875 81.0661 79.7309 82.0058 80.9751 82.0058H81.3894C81.5675 82.0058 81.7442 82.0088 81.9174 82.0146C83.5693 82.0693 84.8139 83.1145 85.226 84.7151C85.7284 86.36 85.6827 86.7471 84.8606 87.8598C83.262 89.9886 81.7548 96.4233 81.7548 101.019C81.7548 105.277 81.1154 108.519 80.0649 109.873C79.5625 110.502 78.3293 110.744 74.7668 110.889C71.5697 111.034 69.2861 111.421 67.3678 112.147C63.8966 113.502 62.5264 113.502 60.5168 112.05C59.6034 111.373 58.6899 110.792 58.4159 110.696C58.1418 110.599 57.7308 109.389 57.5024 107.986C56.9543 105.035 57.5481 103.535 60.0601 101.165C62.1611 99.2294 63.6226 99.2294 64.9471 101.116C65.4952 101.89 66.226 102.568 66.5457 102.568C66.8654 102.568 68.1899 101.407 69.5144 100.003C70.8389 98.6004 72.6659 97.1006 73.5337 96.6652C74.8582 95.9879 74.9952 95.7943 74.3101 95.504C73.8534 95.3105 72.3005 95.3589 70.8846 95.504C67.0481 96.0362 66.8197 95.9879 64.5817 94.3913C62.6178 93.0366 62.4351 92.9882 61.0192 93.6172C59.6034 94.2461 59.375 94.1978 58.0505 93.1334C57.2284 92.5044 56.3149 91.6336 55.9952 91.1497C55.5841 90.6176 55.1274 90.424 54.5793 90.6659C53.8942 90.9079 53.8029 91.3433 54.0312 93.085C54.2139 94.1978 54.5793 98.5037 54.8534 102.616L55.1886 107.173C55.3247 109.024 54.71 110.851 53.4832 112.244C52.4784 113.453 51.6106 114.663 51.6106 115.002C51.6106 115.534 54.1683 119.017 55.7668 120.614C56.2236 121.098 56.6346 121.823 56.6346 122.21C56.6346 123.033 60.5168 171.898 60.9736 176.929C61.1562 178.574 61.1562 180.171 61.0192 180.413C60.8365 180.703 59.9688 180.655 58.6899 180.268C56.8173 179.639 56.3606 179.735 51.1538 181.284L48.3819 182.15C46.5609 182.719 44.6075 182.704 42.7957 182.106C38.2284 180.703 36.8125 179.977 37.3606 179.397C37.726 179.01 37.4519 178.574 36.4471 177.849C34.1635 176.204 34.2091 175.429 36.5841 175.865C37.2512 175.977 37.6877 175.187 37.2375 174.682L37.0409 174.462L36.4499 173.818C36.008 173.337 36.2629 172.557 36.9038 172.43C38 172.188 38.274 171.946 37.9087 171.511C37.5889 171.124 37.726 170.688 38.3654 170.059C39.4615 168.995 38.8678 167.882 37.2236 167.882C35.762 167.882 33.0216 166.576 32.7476 165.753C32.5649 165.269 32.8389 164.979 33.7067 164.882C34.7572 164.737 34.9399 164.544 34.8029 163.383C34.6659 162.173 34.7572 162.076 35.762 162.318C36.7668 162.608 36.8582 162.512 36.6755 161.496C36.5385 160.77 35.8534 159.948 34.9399 159.464C34.1178 158.98 33.2957 158.157 33.2043 157.625C33.0673 157.141 32.3365 156.464 31.5601 156.125C29.4591 155.303 29.4135 154.384 31.4231 154.384C32.3365 154.384 33.6154 154.287 34.2548 154.142C34.3719 154.124 34.4905 154.105 34.6076 154.085C35.4041 153.95 35.9227 153.497 35.3966 152.884C34.1178 151.384 34.8029 150.465 37.1779 150.465C38.3197 150.465 39.3702 150.223 39.5072 149.981C39.6442 149.691 39.7356 149.497 39.6442 149.497C39.5529 149.497 38.4567 149.11 37.1322 148.626C35.9061 148.202 35.3784 146.759 36.0414 145.643L36.3101 145.191C37.1322 143.74 38.5938 141.998 39.5529 141.272C40.9688 140.256 44.3029 135.273 44.3029 134.16C44.3029 133.87 39.2332 138.902 37.1322 141.272C34.4832 144.224 34.0264 144.901 34.1635 145.724C34.2548 146.111 33.9808 146.836 33.5697 147.272C32.5649 148.288 31.0577 147.465 31.0577 145.869C31.0577 144.998 31.3317 144.659 32.3365 144.562C33.4327 144.369 33.4784 144.32 32.6562 143.982C29.7788 142.821 28.8197 142.192 28.5457 141.272C28.1346 139.821 28.363 139.676 31.2404 139.724C33.3413 139.724 33.7981 139.579 34.0264 138.805C34.3918 137.692 33.5697 136.531 32.0625 135.902C31.4688 135.66 31.149 135.225 31.2861 134.983C31.5601 134.499 30.5096 133.048 29.8702 133.048C29.1394 133.048 24.6635 129.468 24.6635 128.839C24.6635 128.064 25.7596 128.016 26.9928 128.693C27.6779 129.08 27.8606 129.032 27.8606 128.5C27.8606 128.113 27.6779 127.629 27.4038 127.484C26.5361 126.903 26.9471 126.42 29.2308 125.258C30.6466 124.533 31.4231 123.855 31.2861 123.517C31.149 123.178 30.9663 122.597 30.8293 122.259C30.601 121.678 33.0673 118.533 33.7981 118.533C33.9808 118.533 34.7115 117.372 35.3966 115.969C36.1274 114.615 38.4111 111.518 40.512 109.196C42.613 106.874 44.3029 104.745 44.3029 104.455C44.3029 103.729 42.476 104.89 40.1923 107.164C39.0505 108.277 37.5889 109.535 36.9495 109.97C36.3101 110.454 34.9856 112.244 33.9808 114.034C32.0625 117.517 29.3221 120.033 27.8606 119.646C25.8053 119.066 25.4856 116.598 27.4495 116.598C28.2716 116.598 28.3173 116.501 27.8606 115.872C27.5409 115.485 26.7644 114.856 26.0793 114.518C25.2115 114.082 24.8462 113.453 24.6178 112.099C24.2524 109.776 24.8918 109.389 26.4447 110.986C28.0433 112.631 28.4543 112.583 28.0889 110.792C27.8606 109.68 27.9519 109.341 28.5 109.341C28.8654 109.341 29.7332 109.099 30.4183 108.857C31.5601 108.373 31.6058 108.325 30.8293 107.406C30.0986 106.535 30.1442 106.39 31.9255 103.826C32.9303 102.374 34.2548 100.826 34.8029 100.439C36.6298 99.0842 34.9399 99.6164 32.7933 101.068C31.6058 101.842 30.4639 102.906 30.1899 103.439C29.9159 103.971 29.1851 104.745 28.5 105.18C27.4952 105.906 27.1298 105.954 25.988 105.471C24.3894 104.745 24.1611 103.051 25.6683 103.051C26.0444 103.051 26.2467 102.61 26.0012 102.325L25.6683 101.939C24.2524 100.342 24.3438 98.9875 25.8053 99.3745C27.0385 99.7132 27.2668 99.2294 26.3534 98.2618C25.8966 97.778 26.0793 97.4393 27.1755 96.4717C27.9519 95.8427 28.8197 95.3105 29.1851 95.3105C29.5505 95.3105 31.6058 93.3753 33.7524 91.0046C35.899 88.6339 38.0913 86.6503 38.5938 86.5052C39.0962 86.4084 39.3245 86.2149 39.0505 86.0214C38.274 85.5376 34.8029 87.5696 32.2909 89.9886C29.5505 92.6012 27.8606 93.8591 27.1298 93.8591C26.8558 93.8591 26.1707 93.4237 25.5769 92.8915C24.7548 92.1658 24.7091 91.9239 25.2572 91.9239C26.3534 91.9239 26.6274 91.053 25.988 89.408C25.5312 88.1985 25.5312 87.9082 26.0793 87.5696C26.5817 87.2309 26.4904 87.0858 25.8053 86.8438C23.887 86.2149 23.5216 85.7311 23.4303 83.8926C23.3846 82.8766 23.1562 80.7962 22.9736 79.3448C22.6082 76.8774 22.5168 76.6838 21.0553 76.3936C20.2332 76.2 19.4111 75.8614 19.2284 75.5711C19.0913 75.3292 18.6346 74.9905 18.2692 74.8454C17.9038 74.7002 18.726 74.7002 20.0962 74.8454L21.2503 74.9343C21.6954 74.9686 21.9327 74.4209 21.6034 74.1196C21.0553 73.5874 19.7764 73.0553 18.7716 72.8617C17.7668 72.7166 16.625 72.1844 16.1683 71.749C15.4375 70.9749 15.4832 70.8781 16.4423 70.4427C17.1274 70.104 17.6755 70.1524 18.3149 70.5394C19.9591 71.6522 19.8678 71.0716 18.0409 69.4267C16.3053 67.8301 16.2596 67.7334 17.2188 67.4431C17.6662 67.3194 17.7939 66.7461 17.4411 66.4443L17.0817 66.1368C16.2139 65.4594 16.0769 65.0724 16.488 64.7821C16.9447 64.4918 16.9447 64.2499 16.4423 63.6693C16.1226 63.2339 15.9856 62.7501 16.1226 62.605C16.5793 62.0728 18.726 62.8952 19.6851 63.9113C20.1875 64.4435 20.7356 64.8305 20.9183 64.7337C22.6538 63.9113 28.363 55.0575 27.6779 54.2834C27.2212 53.848 24.4351 57.3314 23.1562 59.8956C21.6034 63.0888 20.8726 63.3791 19.137 61.6373C18.3932 60.8766 18.3713 59.668 19.0869 58.8808L20.1875 57.6701C21.512 56.2671 23.887 54.2351 25.4399 53.1223C28.1346 51.2838 33.3413 44.9943 37.9087 38.0758C38.7308 36.8179 39.6899 35.8019 40.0553 35.8019C40.8774 35.8019 41.2885 37.9307 40.6947 39.0918C40.4207 39.6724 40.1923 40.7368 40.1923 41.5108C40.1923 42.4785 39.5986 43.8331 38.5024 45.3329C37.5433 46.5909 36.3101 48.5745 35.7163 49.6389C34.8029 51.4773 34.8029 51.6709 35.488 51.5741C37.6346 51.429 35.0312 58.0572 31.5144 61.8793C29.0481 64.5886 28.9567 65.024 31.3317 63.1372C33.1587 61.6373 38.7764 58.928 39.4615 59.1699C39.7356 59.2667 39.3245 59.7505 38.5938 60.2343C36.2644 61.7825 34.6202 63.3791 35.3053 63.3791C35.625 63.3791 36.0817 63.2339 36.2644 62.992C36.4471 62.7985 37.5433 62.3147 38.7308 61.9276C40.4663 61.3471 41.2885 60.6214 43.1611 58.1055C44.3942 56.4122 47.637 52.7352 50.2861 49.8808C52.9351 47.0747 55.9495 43.4945 57.0457 41.9947C58.0962 40.4949 60.0144 38.5596 61.2476 37.6888C62.4808 36.8663 63.9423 35.5116 64.4904 34.6407C65.0385 33.8183 65.8149 32.8023 66.226 32.4152C66.5913 32.0282 67.2308 31.2541 67.5962 30.7219C68.1899 29.9478 68.0529 29.9478 66.6827 30.9154C65.8149 31.5927 64.399 32.7539 63.6226 33.5764C60.9736 36.1406 61.9327 34.2053 65.8606 28.9802C66.5 28.0609 67.9159 25.787 69.012 23.9485C70.7476 20.9489 82.7596 6.7733 83.6274 6.7733C83.8101 6.7733 84.0841 7.11197 84.2212 7.54739ZM91.9856 18.8202C92.0312 22.1101 91.8486 23.8518 91.4832 24.2388C90.9808 24.7226 90.8894 23.6583 90.8894 18.8685C90.8894 14.2724 91.0264 13.0145 91.4375 13.4499C91.7572 13.7885 91.9856 15.8205 91.9856 18.8202ZM97.2837 21.9649C97.2837 22.8842 97.101 23.755 96.8726 23.9002C96.6442 24.0937 96.3245 25.1097 96.1418 26.2708C95.8221 28.448 94.8173 30.48 94.0865 30.48C93.3558 30.48 93.5841 29.3188 94.7716 26.803C95.4111 25.4967 95.9135 23.9969 95.9135 23.4647C95.9135 21.9649 96.4159 20.32 96.8726 20.32C97.101 20.32 97.2837 21.0457 97.2837 21.9649ZM99.1106 24.4324C99.1106 25.8838 98.1971 28.0609 97.6034 28.0609C97.375 28.0609 97.3293 27.5771 97.4663 26.9482C97.649 26.3676 97.8774 25.3032 98.0144 24.5291C98.3798 22.8842 99.1106 22.7874 99.1106 24.4324ZM88.149 25.3032C88.149 27.0449 86.5962 32.3185 85.8654 33.0926C84.8606 34.1569 85.7284 28.0126 87.0072 24.5291C87.5553 23.1745 88.149 23.6099 88.149 25.3032ZM91.3005 31.8347C90.9351 32.5604 90.387 33.4796 90.0216 33.8667C89.4279 34.4956 89.4279 34.3988 89.7019 33.1893C90.113 31.3508 91.4832 29.2221 91.7115 29.9962C91.8029 30.2865 91.6202 31.1573 91.3005 31.8347ZM177.486 34.3988C178.308 35.3665 178.308 35.4148 177.349 37.3017C176.481 38.995 176.435 39.2369 177.075 39.624C177.531 39.8659 177.714 40.3497 177.531 40.8335C177.303 41.4625 176.8 41.6076 175.522 41.5108C173.284 41.3173 172.644 39.7207 173.558 36.6728C174.517 33.3828 175.933 32.5604 177.486 34.3988ZM185.433 34.3988C185.433 34.6891 184.793 35.56 184.062 36.3825C182.921 37.592 182.555 37.7371 182.007 37.2533C180.82 36.1889 181.185 34.8827 182.829 34.3988C184.839 33.7699 185.433 33.7699 185.433 34.3988ZM166.707 41.1238C167.255 44.1234 167.209 44.7524 166.433 47.2682C165.885 49.155 165.565 51.7676 165.519 55.1543C165.428 57.9604 165.382 60.8633 165.337 61.6857C165.291 62.4598 165.337 64.4435 165.428 66.04C165.519 68.6526 165.382 69.1848 164.012 71.4587C162.505 73.9745 161.683 74.6518 161.683 73.3939C161.683 73.0553 161.317 72.2328 160.906 71.6038C160.358 70.7814 160.084 69.1848 159.947 66.2819C159.81 62.2179 160.038 61.2987 161.683 58.541C162.094 57.8636 162.87 56.2187 163.418 54.864C164.24 52.7836 164.332 52.1547 163.875 50.6065C163.281 48.5261 162.596 49.1067 162.596 51.7676C162.596 52.7352 161.957 54.5737 161.135 56.1219C160.358 57.5733 159.262 59.7505 158.714 60.96C158.12 62.1695 157.207 63.5726 156.659 64.1048C155.38 65.3143 152.913 70.9749 153.096 72.2328C153.233 73.2004 154.284 71.5071 156.156 67.3463C156.522 66.5238 157.115 65.7981 157.481 65.7981C157.846 65.7981 157.938 66.04 157.709 66.3787C157.526 66.7173 157.435 67.4431 157.481 68.0236C157.572 68.5558 157.207 69.5718 156.659 70.2975C156.156 70.9749 155.106 73.152 154.329 75.0873C153.599 77.0225 152.365 79.4416 151.635 80.4092C150.036 82.4896 146.611 89.3597 146.611 90.424C146.611 90.9562 146.839 90.8111 147.387 89.9886C147.798 89.3597 148.529 88.4404 148.986 87.9566C149.397 87.5212 150.082 86.36 150.447 85.4408C151.178 83.5539 154.192 79.1029 155.654 77.7482C156.156 77.216 156.841 76.9741 157.115 77.1676C157.938 77.6998 157.298 81.1833 156.019 83.2153C155.471 84.1345 154.832 85.2957 154.695 85.8279C154.421 86.6019 154.512 86.6503 155.562 86.4084C156.43 86.1665 156.933 86.3117 157.389 86.9406C158.212 88.1017 158.166 88.9726 157.298 90.7143C156.659 92.0206 156.659 92.1658 157.389 92.7463C158.12 93.2785 158.12 93.4237 157.435 94.5364C157.024 95.2138 155.974 96.0846 155.106 96.5201C153.096 97.536 152.365 98.4553 152.731 99.4713C152.959 100.1 153.142 100.149 153.69 99.6648C154.238 99.181 154.421 99.2294 154.695 99.9551C154.969 100.778 155.06 100.729 155.288 99.7132C155.654 98.0199 156.887 97.2941 157.8 98.2134C158.668 99.181 158.075 101.697 156.567 103.39C155.608 104.503 155.562 104.6 156.339 105.035C156.75 105.325 157.115 105.858 157.115 106.245C157.115 107.212 155.517 110.502 154.649 111.228C153.462 112.292 153.736 113.26 155.197 113.115C156.248 112.97 156.43 113.163 156.567 114.276C156.659 115.05 156.933 115.631 157.161 115.631C157.892 115.631 157.618 116.888 156.659 117.808C156.156 118.291 155.745 118.872 155.745 119.114C155.745 119.307 156.156 119.501 156.659 119.501C158.212 119.501 157.663 120.759 154.786 123.952C152.411 126.516 152.137 127 152.868 127.29C154.192 127.871 154.329 127.823 154.969 126.129C155.791 124.049 156.978 123.033 157.663 123.759C158.075 124.194 157.938 124.871 157.207 126.42C156.659 127.629 156.202 128.935 156.202 129.371C156.202 129.806 155.882 130.725 155.471 131.403C154.329 133.241 155.106 133.386 156.659 131.596L157.163 131.026C157.465 130.685 158.029 130.899 158.029 131.354C158.029 133.193 156.111 135.757 154.421 136.096C153.69 136.289 152.822 136.725 152.457 137.16C150.995 138.999 150.675 139.289 150.127 139.047C149.26 138.708 149.26 134.015 150.082 134.015C150.95 134.015 150.858 133.532 149.808 132.08C148.712 130.629 148.62 129.177 149.579 129.177C150.127 129.177 150.173 128.984 149.853 128.258C149.579 127.774 149.534 127.242 149.716 127.048C149.853 126.855 150.036 125.791 150.036 124.678C150.082 123.226 149.853 122.452 149.26 122.017C148.803 121.63 148.438 120.807 148.483 120.082C148.483 119.356 148.3 117.663 148.072 116.356C147.661 114.131 147.615 114.082 147.57 115.679C147.57 116.598 147.204 117.808 146.839 118.34C146.474 118.824 146.154 120.227 146.154 121.485C146.154 122.694 145.925 123.904 145.606 124.242C145.332 124.533 145.012 125.5 144.966 126.371C144.921 127.242 144.784 129.032 144.647 130.387C144.51 132.322 144.647 132.951 145.286 133.435C146.382 134.257 145.971 136.628 144.464 138.563C143.459 139.821 143.459 140.015 144.099 140.789C144.921 141.756 144.966 142.192 144.19 143.159C143.825 143.595 143.276 144.708 142.911 145.627C142.591 146.546 141.906 147.707 141.358 148.143C140.582 148.868 140.536 148.965 141.221 149.013C141.632 149.013 142.5 148.82 143.094 148.578C144.692 147.901 144.921 148.433 143.87 150.271C143.276 151.239 143.094 151.965 143.413 152.158C144.099 152.594 144.007 153.029 142.5 155.351C141.312 157.238 141.221 157.528 141.861 158.061C142.454 158.544 142.454 158.69 141.632 159.512C141.175 159.996 140.627 161.012 140.445 161.834C140.262 162.705 140.308 163.044 140.536 162.705C142.504 159.786 144.79 162.221 142.32 164.73C142.116 164.937 141.928 165.106 141.769 165.221C141.579 165.351 141.412 165.494 141.278 165.636C140.837 166.104 141.283 166.946 141.724 166.479C142.363 165.802 144.327 165.802 144.327 166.431C144.327 166.672 144.144 166.914 143.87 166.914C143.276 166.914 141.495 170.688 141.815 171.269C141.952 171.559 142.409 171.752 142.774 171.752C143.322 171.752 143.276 171.994 142.546 173.01C141.998 173.736 141.587 174.607 141.587 174.946C141.587 175.333 141.175 175.865 140.673 176.204C139.668 176.881 139.44 178.042 140.353 178.042C140.673 178.042 141.175 177.8 141.45 177.51C141.769 177.171 142.317 177.074 142.774 177.268C143.459 177.558 143.459 177.703 142.546 178.671C142.043 179.3 141.587 180.171 141.587 180.558C141.587 180.993 141.13 181.961 140.582 182.735C138.8 185.057 137.476 187.186 137.476 187.621C137.476 187.863 137.978 187.96 138.618 187.815C139.531 187.67 139.76 187.815 139.76 188.541C139.76 189.992 140.262 190.234 141.495 189.363C142.683 188.541 144.966 188.831 144.647 189.799C144.555 190.137 144.007 190.621 143.413 190.96C141.998 191.685 141.312 193.427 142.272 193.814C143.368 194.298 143.048 195.217 141.358 196.524C140.349 197.287 139.045 197.545 137.821 197.224L128.889 194.879C122.952 193.33 117.334 192.073 116.421 192.073C114.548 192.073 113.635 191.202 112.858 188.637C112.538 187.67 111.899 186.46 111.397 185.977C110.209 184.815 109.524 183.122 108.337 178.042C107.149 173.059 106.418 168.704 106.418 166.672C106.418 165.705 105.688 164.012 104.363 161.834C103.221 159.996 102.171 157.964 101.988 157.335C101.531 155.4 102.764 152.448 104.546 151.142C105.551 150.412 106.149 149.248 106.157 148.005L106.19 143.111C106.19 137.063 106.327 135.902 107.195 133.87C107.743 132.612 108.474 131.306 108.793 130.967C110.163 129.613 113.726 128.597 113.726 129.564C113.726 129.806 113.315 130.387 112.767 130.919C111.579 132.08 111.853 134.644 113.543 137.692C114.868 140.063 115.873 140.353 118.111 139.095C118.841 138.708 119.755 138.37 120.12 138.37C121.582 138.37 121.947 137.257 121.947 133.048C121.947 129.371 121.81 128.693 120.851 127.29C119.618 125.549 118.704 121.63 117.608 113.647C116.877 108.228 115.69 103.535 114.868 102.955C114.594 102.713 114.457 100.294 114.548 96.1814C114.639 90.7627 114.822 89.6016 115.507 88.7791C116.786 87.2793 116.832 86.6503 115.964 82.9734C115.142 79.7318 115.142 79.5867 116.01 78.1353C116.466 77.3128 117.38 76.1516 118.019 75.5227C119.115 74.4099 119.115 74.4099 119.618 75.3775C119.892 75.9581 120.12 77.0225 120.12 77.845C120.12 78.6191 120.303 79.8286 120.577 80.5543C120.805 81.2316 121.034 84.0378 121.079 86.8438C121.125 91.6819 121.079 91.9239 119.755 94.0042C117.974 96.6652 115.37 102.084 115.69 102.374C115.827 102.519 116.421 101.89 117.014 101.019C117.608 100.149 118.933 98.2134 119.938 96.7619C120.988 95.3105 122.084 93.5688 122.404 92.8915C123.272 91.1981 126.56 87.0858 127.108 87.0858C127.748 87.0858 127.2 91.053 126.286 92.9398C125.829 93.8591 125.19 95.2138 124.779 95.9879C124.413 96.7619 124.002 98.3585 123.911 99.6164C123.88 99.9982 124.412 100.123 124.553 99.7669L124.825 99.0842C125.464 97.536 126.606 95.504 127.382 94.5848C128.159 93.6656 128.889 92.2625 129.026 91.5368C129.483 89.1178 130.716 84.9086 131.356 83.6023C131.721 82.8766 133.32 80.7962 135.01 78.9094C138.298 75.2324 142.957 69.1848 142.957 68.6042C142.957 68.4107 144.692 66.0884 146.793 63.4274C148.894 60.7665 151.041 58.0088 151.543 57.2347C151.847 56.8058 152.522 57.0142 152.531 57.5396L152.548 58.541C152.548 61.589 152.137 62.3631 148.666 66.2819C146.519 68.6526 142.5 75.2324 142.5 76.3452C142.5 76.5871 141.769 77.7482 140.901 78.9577C139.76 80.5059 139.12 82.0058 138.8 83.9894C138.526 85.5376 137.887 87.9566 137.43 89.2629C136.334 92.4077 136.334 92.8431 137.522 91.3917C138.846 89.7951 139.531 88.2953 140.399 85.1021C140.764 83.6023 141.587 81.7638 142.135 81.0381C142.728 80.264 144.327 77.4095 145.743 74.6035C148.894 68.2655 149.397 68.2172 148.757 74.2648C148.575 75.5711 148.575 76.2484 148.712 75.7162C148.849 75.184 149.214 74.0713 149.579 73.2972C149.899 72.4747 150.447 70.7814 150.767 69.4751C151.041 68.2172 152.046 66.1368 152.913 64.9273C154.786 62.3631 155.288 60.6697 155.288 57.1863C155.288 54.1867 156.065 52.445 159.582 47.2198C160.952 45.1878 162.231 43.0591 162.413 42.4301C162.962 40.64 164.834 37.7371 165.519 37.7371C165.885 37.7371 166.341 38.9467 166.707 41.1238ZM124.094 40.2529C123.957 40.5916 123.865 40.3497 123.865 39.6724C123.865 39.0413 124.216 39.3588 124.145 39.986C124.134 40.0878 124.117 40.1796 124.094 40.2529ZM182.464 39.1886C182.327 39.4305 182.007 39.6724 181.733 39.6724C181.505 39.6724 181.322 39.4305 181.322 39.1886C181.322 38.8983 181.642 38.7048 182.053 38.7048C182.418 38.7048 182.601 38.8983 182.464 39.1886ZM126.012 46.4457C126.058 48.9615 126.012 49.0583 125.464 47.8488C124.733 46.4457 124.139 41.8495 124.596 41.3657C125.19 40.7851 126.012 43.7364 126.012 46.4457ZM183.514 43.4945C183.377 44.9459 181.962 45.2362 181.185 43.9783C180.454 42.7204 181.094 41.7044 182.464 41.9947C183.423 42.1882 183.651 42.4301 183.514 43.4945ZM10.0024 43.4461C11.9663 44.4621 12.1947 45.1394 10.8245 45.9135C9.86538 46.4457 9.59135 46.3973 8.22115 45.091C5.9375 42.8655 7.03365 41.8495 10.0024 43.4461ZM131.63 45.3329C132.498 46.8811 133.365 48.5745 133.548 49.1067C134.05 50.4613 133.913 59.944 133.411 60.9116C132.817 61.976 132.68 61.4438 132.041 55.5413C131.767 52.9771 131.036 49.155 130.397 47.0747C129.118 42.8655 129.072 42.5752 129.666 42.5752C129.849 42.5752 130.762 43.8331 131.63 45.3329ZM9.54567 47.123C9.91106 47.6069 9.95673 47.8971 9.59135 48.1391C8.86058 48.6229 7.30769 47.9455 7.30769 47.123C7.30769 46.2522 8.86058 46.2522 9.54567 47.123ZM136.197 48.8648C136.334 49.2518 136.288 50.0259 136.06 50.5581C135.786 51.3322 135.695 51.2354 135.695 49.9775C135.649 49.155 135.466 48.2842 135.192 48.1391C134.964 47.9939 134.736 47.4617 134.736 47.0263C134.736 46.349 134.827 46.3973 135.329 47.1714C135.695 47.7036 136.06 48.4777 136.197 48.8648ZM43.2067 50.1227C43.0697 50.5097 42.613 50.8 42.2019 50.8C41.4712 50.8 41.4712 50.7516 42.1562 49.9292C42.613 49.4453 42.9784 48.6229 42.9784 48.0907C43.024 47.365 43.1154 47.4133 43.2524 48.2842C43.3894 48.9131 43.3438 49.7356 43.2067 50.1227ZM128.981 51.5741C129.62 56.5573 129.3 59.6053 127.93 62.6534C126.423 65.8949 126.149 65.2175 127.245 60.8149C127.702 58.928 127.885 56.4122 127.793 53.6061C127.702 50.7032 127.839 49.3486 128.159 49.3486C128.433 49.3486 128.798 50.3646 128.981 51.5741ZM10.0481 50.8484C10.0481 51.0903 9.72836 51.429 9.31731 51.6225C8.44952 51.9612 7.58173 50.7516 8.3125 50.2678C8.95192 49.8324 10.0481 50.2678 10.0481 50.8484ZM185.57 51.7192C186.026 52.203 185.57 55.6381 185.067 55.6381C184.474 55.5897 181.825 51.5741 182.099 51.1387C182.373 50.6549 184.976 51.0903 185.57 51.7192ZM125.921 53.0739C125.784 53.5577 125.692 53.2674 125.692 52.4933C125.692 51.7293 126.044 52.0049 125.967 52.765C125.956 52.8753 125.94 52.9802 125.921 53.0739ZM10.5048 52.2514C10.5048 52.4933 10.3221 52.7352 10.0481 52.7352C9.81971 52.7352 9.59135 52.4933 9.59135 52.2514C9.59135 51.9612 9.81971 51.7676 10.0481 51.7676C10.3221 51.7676 10.5048 51.9612 10.5048 52.2514ZM135.969 55.9768C135.832 56.4606 135.74 56.1703 135.74 55.3962C135.74 54.6322 136.092 54.9077 136.015 55.6678C136.004 55.7782 135.988 55.8831 135.969 55.9768ZM15.5288 58.541C15.5288 58.7829 15.3462 59.0248 15.0721 59.0248C14.8438 59.0248 14.6154 58.7829 14.6154 58.541C14.6154 58.2507 14.8438 58.0572 15.0721 58.0572C15.3462 58.0572 15.5288 58.2507 15.5288 58.541ZM9.69466 64.6117C10.5032 64.7128 10.8071 65.1797 10.2764 65.7981C9.18029 67.1044 7.58173 66.8625 7.39904 65.4594C7.28156 64.5469 7.56698 64.3456 9.69466 64.6117ZM129.894 65.5562C129.712 65.9433 129.529 66.2819 129.438 66.2819C129.346 66.2819 129.255 65.9433 129.255 65.5562C129.255 65.1692 129.438 64.8305 129.712 64.8305C129.94 64.8305 130.031 65.1692 129.894 65.5562ZM125.921 66.8625C125.784 67.2495 125.647 67.1044 125.647 66.5722C125.601 66.04 125.738 65.7497 125.875 65.9433C126.012 66.0884 126.058 66.5238 125.921 66.8625ZM127.611 72.765C125.966 77.1676 125.418 77.7966 125.692 74.9421C125.829 73.6842 126.514 71.3136 127.245 69.717C128.433 67.056 128.57 66.8625 128.707 68.0236C128.798 68.7494 128.296 70.8781 127.611 72.765ZM131.721 68.8461C131.31 70.0073 130.671 69.3783 130.945 68.1688C131.082 67.5882 131.356 67.3463 131.63 67.6366C131.858 67.8785 131.904 68.4107 131.721 68.8461ZM158.029 72.4747C158.029 73.4423 156.385 75.3292 155.928 74.8937C155.562 74.5067 157.024 71.6038 157.572 71.6038C157.846 71.6038 158.029 71.9909 158.029 72.4747ZM166.113 74.2164C165.976 75.6195 165.337 78.0385 164.697 79.5383C164.058 81.0381 163.51 82.6831 163.51 83.2153C163.51 84.4732 163.144 84.4248 161.82 83.1185C160.724 82.0541 160.404 80.1189 161.226 79.5867C161.5 79.4416 161.683 78.9577 161.683 78.5707C161.683 77.8934 165.748 71.6038 166.204 71.6038C166.296 71.6038 166.25 72.765 166.113 74.2164ZM10.8245 73.8777C11.0529 74.5067 10.2308 75.9581 9.59135 75.9581C9.08894 75.9581 8.08413 73.6842 8.40385 73.152C8.76923 72.5231 10.5048 73.0069 10.8245 73.8777ZM161.683 75.9097C161.683 77.2644 160.724 77.6998 160.038 76.6838C159.308 75.6195 159.582 74.9905 160.815 74.9905C161.363 74.9905 161.683 75.3292 161.683 75.9097ZM21.238 78.861C21.4207 79.877 21.4207 80.9897 21.238 81.28C20.7812 82.0541 19 81.8606 18.1779 80.893C17.7668 80.4576 17.0817 79.7802 16.6707 79.4416C15.3005 78.1837 16.6707 77.1193 19.7308 76.9741C20.7812 76.9257 20.9639 77.1676 21.238 78.861ZM18.9543 86.1181C18.726 86.9406 18.4976 87.0374 17.9952 86.5536C17.2188 85.8762 17.1731 84.8118 17.9495 84.5216C18.8173 84.1829 19.3197 84.957 18.9543 86.1181ZM163.464 86.2633C163.738 87.0858 164.103 89.2145 164.286 91.053C164.514 93.8591 164.423 94.3429 163.784 94.6332C162.596 95.117 161.637 93.472 161.865 91.4884C162.002 90.5692 161.865 89.5048 161.591 89.1661C161.272 88.7307 161.272 88.3437 161.637 87.9082C162.002 87.4244 161.957 86.989 161.5 86.36C161.135 85.8279 160.952 85.1989 161.089 84.8602C161.454 83.8442 162.962 84.7151 163.464 86.2633ZM7.76442 84.6667C8.32178 84.6667 8.69651 85.5063 8.24608 85.8346C7.99458 86.0179 7.61454 86.0762 7.30769 85.8762C6.80529 85.5376 7.125 84.6667 7.76442 84.6667ZM10.2764 87.0858C10.4135 87.3277 10.1394 87.5696 9.63702 87.5696C9.08894 87.5696 8.67788 87.3277 8.67788 87.0858C8.67788 86.7955 8.95192 86.6019 9.31731 86.6019C9.68269 86.6019 10.1394 86.7955 10.2764 87.0858ZM16.899 92.6496C16.899 93.0366 16.5793 93.3753 16.2139 93.3753C15.4832 93.3753 15.3005 92.7947 15.8486 92.2625C16.351 91.6819 16.899 91.8755 16.899 92.6496ZM10.2764 93.8591C10.4135 94.101 10.2308 94.3429 9.86538 94.3429C9.45433 94.3429 9.13461 94.101 9.13461 93.8591C9.13461 93.5688 9.31731 93.3753 9.54567 93.3753C9.81971 93.3753 10.1394 93.5688 10.2764 93.8591ZM25.1202 94.8267C25.1202 95.0686 24.8005 95.3105 24.4351 95.3105C24.0697 95.3105 23.75 95.0686 23.75 94.8267C23.75 94.5364 24.0697 94.3429 24.4351 94.3429C24.8005 94.3429 25.1202 94.5364 25.1202 94.8267ZM163.966 96.4233C163.966 96.7136 163.784 97.2941 163.555 97.6812C163.236 98.2134 162.916 98.1166 161.957 97.1006C161.272 96.3749 160.906 95.5524 161.043 95.117C161.272 94.4397 161.454 94.4397 162.642 95.117C163.373 95.504 163.966 96.0846 163.966 96.4233ZM58.0048 99.9551C58.0048 100.584 57.8221 101.116 57.5938 101.116C57 101.116 56.6346 99.8583 56.6346 97.8263V97.5976C56.6346 97.215 57.1518 97.0955 57.3197 97.4393C57.6851 98.165 58.0048 99.3261 58.0048 99.9551ZM10.9615 99.6648C10.9615 99.9067 10.5505 100.149 10.0481 100.149C9.54567 100.149 9.13461 99.9067 9.13461 99.6648C9.13461 99.3745 9.54567 99.181 10.0481 99.181C10.5505 99.181 10.9615 99.3745 10.9615 99.6648ZM163.51 100.632C163.51 100.874 163.327 101.116 163.053 101.116C162.825 101.116 162.596 100.874 162.596 100.632C162.596 100.342 162.825 100.149 163.053 100.149C163.327 100.149 163.51 100.342 163.51 100.632ZM162.779 104.745C162.413 105.712 161.363 106.003 161.043 105.229C160.906 104.842 161.135 104.309 161.591 104.067C162.505 103.487 163.099 103.826 162.779 104.745ZM166.752 109.825C166.113 112.099 164.925 112.389 164.103 110.502C163.418 108.906 163.692 108.18 165.245 107.551C166.981 106.874 167.438 107.503 166.752 109.825ZM163.875 112.389C164.834 113.163 164.377 115.34 163.236 115.534C162.459 115.631 162.139 115.292 161.728 114.131C160.952 111.76 161.043 111.179 162.276 111.567C162.825 111.712 163.555 112.099 163.875 112.389ZM87.1442 118.001C87.2356 119.695 87.0529 121.775 86.7332 122.597C86.1851 124.049 79.0144 134.451 76.8678 136.918C76.274 137.596 75.6803 138.515 75.5433 138.999C75.4062 139.482 74.2644 141.272 73.0312 143.014C70.8389 146.111 70.7933 146.207 70.7933 149.642C70.7933 153.126 71.524 157.964 72.8029 163.044C73.1683 164.495 73.8534 167.35 74.3558 169.333C74.9495 171.559 75.2236 174.075 75.1779 175.865C74.9952 179.542 75.0865 179.3 73.9447 180.413C73.1226 181.187 72.4375 181.332 68.4639 181.187C65.3366 181.127 63.5074 179.324 63.2398 176.208C63.1843 175.562 63.1285 174.877 63.0745 174.172C62.8005 170.591 62.3438 165.656 62.1154 163.286C61.8413 160.867 61.2476 153.706 60.7452 147.32C60.2428 140.934 59.6034 133.628 59.375 131.112C58.3245 119.888 58.3245 119.985 59.238 119.695C59.6947 119.549 60.9736 119.017 62.1154 118.437C63.7139 117.663 65.7236 117.372 71.7067 117.034C76.751 116.741 80.9589 116.171 83.0652 115.534C84.0168 115.246 84.8824 114.611 85.8654 114.76C86.9159 114.905 87.0072 115.098 87.1442 118.001ZM165.291 119.114C165.245 120.178 165.154 120.372 165.017 119.743C164.88 119.211 164.56 118.485 164.332 118.146C163.966 117.711 164.058 117.566 164.606 117.566C165.154 117.566 165.337 118.001 165.291 119.114ZM162.779 121.63C163.099 121.485 163.601 121.727 163.921 122.114C164.651 123.033 163.784 126.274 162.825 126.274C161.865 126.274 160.769 124.291 160.769 122.597C160.769 120.856 161.272 120.13 161.774 121.146C162.002 121.533 162.413 121.775 162.779 121.63ZM163.51 132.564C163.51 132.806 163.418 133.048 163.327 133.048C163.19 133.048 162.962 132.806 162.825 132.564C162.688 132.274 162.779 132.08 163.007 132.08C163.281 132.08 163.51 132.274 163.51 132.564ZM167.712 137.692C168.123 138.079 166.707 142.385 165.976 143.014C165.611 143.304 165.337 143.885 165.337 144.272C165.337 145.433 164.377 146.159 163.647 145.578C162.779 144.756 162.916 143.885 164.103 143.304C164.88 142.917 164.925 142.772 164.332 142.772C163.281 142.724 163.236 141.031 164.24 140.208C164.651 139.869 165.428 139.095 165.976 138.515C166.981 137.354 167.3 137.208 167.712 137.692ZM156.567 138.466C156.887 138.805 157.115 139.337 157.115 139.676C157.115 140.547 155.243 142.724 154.512 142.724C154.192 142.724 153.918 143.256 153.918 143.933C153.918 145.24 151.132 148.53 150.036 148.53C149.579 148.53 149.351 147.997 149.351 146.885C149.351 145.965 149.214 144.901 149.077 144.466C148.757 143.546 150.082 143.401 150.401 144.272C150.584 144.659 150.767 144.514 150.95 143.837C151.132 143.304 151.68 142.724 152.183 142.579C152.913 142.337 153.005 142.047 152.776 140.692C152.534 139.236 152.757 138.841 154.87 138.199C155.478 138.015 156.132 138.005 156.567 138.466ZM88.8798 147.32C89.0168 148.53 89.5192 149.981 89.9303 150.61C90.387 151.191 90.9808 153.174 91.3005 155.061C92.7163 163.576 92.899 164.06 98.5168 174.413C102.445 181.671 103.312 183.654 103.084 184.719C102.993 185.154 103.312 186.364 103.769 187.331C105.002 189.992 104.82 190.524 102.673 191.202C101.476 191.573 100.179 191.444 99.0784 190.845L92.4423 187.234C86.5048 183.993 84.0385 182.396 83.8558 181.719C83.4447 180.074 83.5361 177.558 84.0841 176.494C84.5409 175.575 84.4038 175.284 83.1707 174.22C81.8005 173.01 81.7548 172.817 81.7548 169.188C81.7548 165.028 82.5769 158.738 83.1707 157.964C83.8558 157.19 83.6274 154.48 82.6226 151.626L82.0778 150.105C81.8017 149.333 82.0377 148.472 82.6683 147.949C83.2163 147.465 84.2212 146.933 84.9062 146.74C85.5457 146.594 86.5048 146.159 87.0072 145.82C88.3317 144.804 88.5144 144.949 88.8798 147.32ZM157.481 146.981C157.572 147.32 157.435 147.562 157.161 147.562C156.887 147.562 156.659 147.901 156.659 148.288C156.659 148.675 156.978 149.013 157.344 149.013C158.486 149.013 158.12 150.32 156.613 151.626C155.608 152.545 155.288 153.126 155.517 153.852C155.791 154.819 155.425 155.545 153.599 157.335C153.005 157.916 152.548 158.786 152.548 159.27C152.548 159.754 152.228 160.286 151.863 160.431C151.498 160.625 151.178 161.012 151.178 161.399C151.178 162.318 149.99 162.27 149.625 161.302C149.168 160.093 149.305 159.657 150.036 159.948C150.767 160.286 151.041 158.932 150.31 158.496C150.082 158.351 149.808 157.819 149.716 157.335C149.534 156.609 149.716 156.512 150.812 156.658C152.548 156.948 153.69 155.932 152.913 154.868C151.178 152.545 151.087 151.916 152.32 150.416C152.959 149.594 153.462 148.53 153.462 148.046C153.462 147.514 153.781 146.933 154.147 146.74C155.106 146.159 157.252 146.352 157.481 146.981ZM157.892 161.351C158.029 162.463 155.197 165.947 154.147 165.947C153.462 165.947 152.091 164.157 152.091 163.189C152.091 162.85 152.365 162.705 152.731 162.85C153.096 162.996 153.781 162.463 154.375 161.592C155.562 159.802 157.709 159.657 157.892 161.351ZM152.411 171.027C152.633 171.732 151.952 172.211 151.39 171.731C151.033 171.425 150.721 171.018 150.721 170.736C150.721 170.011 152.091 170.253 152.411 171.027ZM155.471 177.316C155.288 177.703 155.106 178.042 155.014 178.042C154.923 178.042 154.832 177.703 154.832 177.316C154.832 176.929 155.014 176.591 155.288 176.591C155.517 176.591 155.608 176.929 155.471 177.316Z" fill="black"/>
<path d="M78.0097 23.6582C76.9135 24.7226 76.1827 25.7386 76.4111 25.9321C76.9135 26.4643 78.9688 25.158 79.9736 23.6582C81.3895 21.5295 80.1563 21.5295 78.0097 23.6582Z" fill="black"/>
<path d="M103.221 37.9791C101.486 38.8983 97.2837 43.3494 97.2837 44.2202C97.2837 45.0427 98.7909 44.2202 101.166 42.0915C102.673 40.7368 103.998 39.6724 104.18 39.6724C104.363 39.6724 104.957 38.9951 105.505 38.221C106.692 36.4793 106.144 36.4309 103.221 37.9791Z" fill="black"/>
<path d="M70.7933 41.4142C67.4135 44.2687 67.0938 45.7685 70.2452 44.0752C71.9351 43.1559 73.5337 41.2691 73.5337 40.1563C73.5337 39.3338 72.9399 39.6241 70.7933 41.4142Z" fill="black"/>
<path d="M64.6274 42.0429C64.3533 42.2848 63.2572 43.0105 62.1153 43.6879C60.7908 44.462 59.1923 46.1069 57.6394 48.3324C54.4423 52.9286 55.1274 52.8803 59.2836 48.2841C60.4254 46.9778 62.2067 45.4296 63.2115 44.8006C64.262 44.1717 65.4951 43.2041 65.9519 42.6235C66.8197 41.6075 66.8197 41.6075 65.9519 41.6075C65.4495 41.6075 64.8557 41.801 64.6274 42.0429Z" fill="black"/>
<path d="M85.6371 47.8004C84.6323 48.5261 82.44 50.2678 80.8414 51.6225C79.1972 53.0255 77.6443 54.1867 77.3703 54.1867C77.0962 54.1867 76.5938 54.5253 76.2741 54.9124C75.3606 56.1219 78.3751 55.8316 80.065 54.5737C82.714 52.6869 86.2765 49.3486 87.2356 47.8971C88.4231 46.1554 88.0121 46.107 85.6371 47.8004Z" fill="black"/>
<path d="M107.423 52.8319C107.103 53.1705 106.875 53.606 106.875 53.7995C106.875 54.5252 108.108 54.1865 108.93 53.2189C109.752 52.2997 109.707 52.2513 108.885 52.2513C108.382 52.2513 107.743 52.4932 107.423 52.8319Z" fill="black"/>
<path d="M84.4039 57.8636C82.8967 58.6861 81.8462 60.4762 82.8053 60.4762C83.3991 60.4762 85.3173 59.1215 86.6875 57.7185C87.5553 56.7992 86.0024 56.896 84.4039 57.8636Z" fill="black"/>
<path d="M60.7453 60.6697C58.2332 61.5406 57.2284 62.2663 56.1779 64.1048C55.4928 65.2176 54.2597 66.3303 52.5241 67.2496C50.0121 68.6042 49.0073 69.4751 49.4183 69.9589C49.5097 70.0557 51.0169 69.5718 52.7068 68.8461C55.0361 67.8301 56.2236 67.0077 57.4568 65.4111C58.3246 64.2499 59.6948 62.992 60.4712 62.5566C61.2477 62.1212 62.3895 61.3955 62.9832 60.9116C63.9424 60.0892 63.9424 59.9924 63.2116 60.0408C62.7092 60.0892 61.613 60.3311 60.7453 60.6697Z" fill="black"/>
<path d="M46.7692 65.1207C45.8101 65.8465 44.2115 67.1527 43.2524 68.0236C42.3389 68.9428 41.3341 69.6686 41.0601 69.6686C40.8317 69.6686 39.8269 70.2491 38.9135 70.9265C37.4519 71.9908 37.4063 72.136 38.3654 71.9425C42.5216 70.9748 43.1611 70.6362 46.3125 67.2979C49.6466 63.7177 49.8293 62.9436 46.7692 65.1207Z" fill="black"/>
<path d="M67.048 68.7012C65.8148 70.0075 64.947 71.1202 65.1297 71.1202C65.8148 71.1202 70.3365 67.1046 70.0624 66.7176C69.6514 65.9919 69.423 66.1854 67.048 68.7012Z" fill="black"/>
<path d="M31.9711 69.717C30.0985 70.7814 27.8148 72.3779 26.9471 73.2972C26.0793 74.168 24.8918 75.0389 24.3437 75.2324C23.1105 75.6195 22.9735 76.2 24.0697 76.6355C24.5721 76.829 25.5312 76.4419 26.673 75.4743C27.7235 74.6518 29.5961 73.2488 30.8293 72.3779C34.3004 69.9105 36.7211 67.7334 36.036 67.7334C35.6706 67.7334 33.8437 68.6526 31.9711 69.717Z" fill="black"/>
<path d="M70.9303 71.362C70.6106 71.7491 70.0169 72.8618 69.6515 73.8778C69.2404 74.8938 68.0986 76.442 67.0481 77.2645C65.3582 78.7159 65.3126 78.8611 66.3174 78.8611C67.8702 78.8611 70.7933 76.1517 70.7933 74.7003C70.7933 74.023 71.0217 73.0554 71.2957 72.5232C71.8895 71.2653 71.6611 70.5396 70.9303 71.362Z" fill="black"/>
<path d="M50.9255 84.3279C49.2813 85.2471 43.8462 90.8593 43.8462 91.5367C43.8462 92.3108 45.9928 91.0529 48.0938 89.0692C49.4183 87.8113 51.0168 86.4567 51.7019 85.9729C52.0094 85.7755 52.2979 85.5438 52.5545 85.3002C53.8441 84.0758 52.4652 83.4383 50.9255 84.3279Z" fill="black"/>
<path d="M39.6442 85.489C39.6718 85.5015 39.7 85.5126 39.7287 85.5223C40.2462 85.6972 40.462 85.1464 39.9182 85.1987C39.4158 85.1987 39.2788 85.3439 39.6442 85.489Z" fill="black"/>
<path d="M164.012 46.2521C164.012 46.7843 164.149 46.9295 164.286 46.5424C164.423 46.2038 164.377 45.7683 164.24 45.6232C164.103 45.4297 163.966 45.72 164.012 46.2521Z" fill="black"/>
<path d="M138.526 77.7966C136.426 80.0221 133.594 85.3924 133.183 87.9566C132.954 89.2629 133.046 89.4564 133.502 88.9242C134.142 88.2469 135.786 85.344 137.75 81.5219C138.389 80.1673 139.349 78.5223 139.851 77.7482C141.313 75.5711 140.582 75.5711 138.526 77.7966Z" fill="black"/>
<path d="M147.57 77.6997C147.57 78.2318 147.707 78.377 147.844 77.9899C147.981 77.6513 147.935 77.2158 147.798 77.0707C147.661 76.8772 147.524 77.1675 147.57 77.6997Z" fill="black"/>
<path d="M145.377 84.9087C145.103 85.2474 144.236 86.8439 143.459 88.4405C142.683 90.0855 141.449 92.1175 140.764 92.9883C139.394 94.6816 136.837 101.939 137.476 102.326C137.841 102.568 140.673 96.9072 140.673 96.0847C140.673 95.8912 141.495 94.5849 142.5 93.1818C144.738 90.0371 147.341 82.6832 145.377 84.9087Z" fill="black"/>
<path d="M147.57 94.6331C147.57 95.1653 147.707 95.3105 147.844 94.9234C147.981 94.5847 147.935 94.1493 147.798 94.0042C147.661 93.8107 147.524 94.1009 147.57 94.6331Z" fill="black"/>
<path d="M146.428 97.8749C146.291 98.5038 145.103 100.681 143.824 102.713C141.587 106.293 140.353 109.583 141.084 110.067C141.267 110.164 141.906 109.39 142.454 108.325C143.048 107.261 144.418 104.939 145.514 103.148C147.387 100.1 148.026 97.633 147.113 97.0524C146.885 96.9073 146.611 97.2459 146.428 97.8749Z" fill="black"/>
<path d="M153.69 101.165C153.233 101.89 153.827 102.374 154.421 101.745C154.74 101.407 154.74 101.116 154.466 100.923C154.192 100.778 153.827 100.874 153.69 101.165Z" fill="black"/>
<path d="M131.219 103.632C129.392 105.664 128.022 107.89 128.615 107.89C129.209 107.89 133.365 103.003 133.365 102.326C133.365 101.31 133.32 101.358 131.219 103.632Z" fill="black"/>
<path d="M148.575 105.132C147.387 106.487 146.611 108.083 146.611 109.147C146.611 109.922 148.849 107.309 149.853 105.374C150.493 104.116 149.579 103.922 148.575 105.132Z" fill="black"/>
<path d="M135.649 117.663C135.147 118.243 134.736 118.92 134.736 119.162C134.736 119.598 135.375 118.969 136.517 117.421C137.385 116.26 136.791 116.405 135.649 117.663Z" fill="black"/>
<path d="M140.171 128.79C139.623 129.661 138.435 131.209 137.613 132.177C136.106 134.015 134.736 136.918 134.736 138.321C134.736 138.708 135.466 137.934 136.334 136.531C137.248 135.176 138.435 133.676 138.983 133.289C140.399 132.322 142.317 128.306 141.678 127.629C141.404 127.339 140.901 127.726 140.171 128.79Z" fill="black"/>
<path d="M127.428 167.06C127.428 167.495 127.245 167.882 126.971 167.882C126.743 167.882 126.514 168.172 126.514 168.511C126.514 168.85 125.144 170.543 123.5 172.236C120.531 175.333 118.065 179.252 119.298 178.913C119.618 178.865 121.582 176.881 123.637 174.607C126.423 171.462 127.428 170.011 127.656 168.656C127.749 168.164 127.807 167.671 127.817 167.287C127.829 166.8 127.428 166.572 127.428 167.06Z" fill="black"/>
</svg>
